<svg xmlns="http://www.w3.org/2000/svg" version="1.0" preserveAspectRatio="xMidYMid meet" viewBox="58 202 389 126.5">

<g transform="translate(0.000000,500.000000) scale(0.100000,-0.100000)" fill="#000000" stroke="none">
<path d="M580 2500 l0 -480 1945 0 1945 0 0 480 0 480 -1945 0 -1945 0 0 -480z m3860 0 l0 -450 -1915 0 -1915 0 0 450 0 450 1915 0 1915 0 0 -450z"/>
<path d="M750 2495 l0 -355 1160 0 1160 0 0 355 0 355 -1160 0 -1160 0 0 -355z m360 65 c0 -5 -11 -10 -25 -10 -24 0 -25 -2 -25 -75 0 -43 -4 -75 -10 -75 -6 0 -10 32 -10 75 l0 75 -30 0 c-16 0 -30 5 -30 10 0 6 28 10 65 10 37 0 65 -4 65 -10z m141 0 c26 -14 26 -66 0 -82 -19 -12 -19 -12 0 -39 21 -30 23 -39 10 -39 -5 0 -19 16 -31 35 -12 19 -28 35 -36 35 -9 0 -14 -11 -14 -35 0 -24 -5 -35 -15 -35 -12 0 -15 16 -15 85 l0 85 41 0 c22 0 49 -5 60 -10z m186 -78 c24 -62 28 -82 17 -82 -7 0 -16 11 -20 25 -5 21 -12 25 -40 25 -27 0 -37 -5 -46 -25 -11 -24 -28 -34 -28 -17 0 5 11 35 24 68 12 32 26 67 30 77 11 33 30 12 63 -71z m144 21 l44 -67 3 67 c4 97 22 83 22 -18 0 -107 -12 -110 -71 -18 l-44 67 -3 -67 c-4 -97 -22 -83 -22 18 0 107 12 110 71 18z m223 51 c18 -17 21 -34 7 -34 -5 0 -14 7 -21 15 -18 22 -55 15 -55 -9 0 -13 10 -23 30 -29 42 -13 55 -26 55 -51 0 -30 -19 -46 -54 -46 -31 0 -66 24 -66 47 0 20 16 16 32 -9 11 -17 20 -20 42 -14 38 9 30 38 -14 52 -19 6 -40 20 -47 31 -30 45 52 87 91 47z m168 -1 c40 -36 12 -93 -48 -93 -31 0 -34 -2 -34 -30 0 -16 -4 -30 -10 -30 -6 0 -10 35 -10 85 l0 85 42 0 c24 0 49 -7 60 -17z m175 -71 c24 -62 28 -82 17 -82 -7 0 -16 11 -20 25 -5 21 -12 25 -40 25 -27 0 -37 -5 -46 -25 -11 -24 -28 -34 -28 -17 0 5 11 35 24 68 12 32 26 67 30 77 11 33 30 12 63 -71z m177 72 c21 -21 20 -50 -3 -73 -18 -18 -18 -19 1 -50 16 -24 17 -31 6 -31 -8 0 -23 16 -34 35 -10 20 -26 35 -36 35 -14 0 -18 -8 -18 -35 0 -19 -4 -35 -10 -35 -6 0 -10 35 -10 85 l0 85 44 0 c27 0 51 -6 60 -16z m176 6 c0 -5 -20 -10 -45 -10 -41 0 -45 -2 -45 -25 0 -22 4 -25 34 -25 19 0 38 -4 41 -10 4 -6 -10 -10 -34 -10 -39 0 -41 -2 -41 -30 0 -28 2 -30 39 -30 22 0 43 -4 46 -10 4 -6 -15 -10 -49 -10 l-56 0 0 85 0 85 55 0 c30 0 55 -4 55 -10z m115 -52 l40 -63 3 63 c2 46 7 62 17 62 12 0 15 -17 15 -85 0 -107 -13 -110 -75 -18 l-45 68 0 -68 c0 -38 -4 -67 -10 -67 -6 0 -10 35 -10 85 0 61 3 85 13 85 6 0 30 -28 52 -62z m245 52 c0 -5 -11 -10 -25 -10 -24 0 -25 -2 -25 -75 0 -43 -4 -75 -10 -75 -6 0 -10 32 -10 75 l0 75 -30 0 c-16 0 -30 5 -30 10 0 6 28 10 65 10 37 0 65 -4 65 -10z"/>
<path d="M1180 2520 c0 -29 2 -31 33 -28 27 2 32 7 32 28 0 21 -5 26 -32 28 -31 3 -33 1 -33 -28z"/>
<path d="M1379 2507 c-14 -31 -9 -40 19 -35 17 3 17 6 6 33 l-12 30 -13 -28z"/>
<path d="M1890 2514 c0 -34 1 -35 31 -32 63 6 61 68 -2 68 -27 0 -29 -3 -29 -36z"/>
<path d="M2089 2507 c-14 -31 -9 -40 19 -35 17 3 17 6 6 33 l-12 30 -13 -28z"/>
<path d="M2240 2520 c0 -26 3 -30 29 -30 16 0 34 7 41 15 18 21 -4 45 -41 45 -26 0 -29 -4 -29 -30z"/>
<path d="M3310 2495 l0 -95 49 0 c72 0 101 26 101 91 0 70 -29 99 -100 99 l-50 0 0 -95z m98 43 c7 -7 12 -26 12 -43 0 -37 -16 -55 -47 -55 -21 0 -23 4 -23 55 0 51 2 55 23 55 13 0 28 -5 35 -12z"/>
<path d="M3490 2495 l0 -95 66 0 c57 0 65 2 62 18 -2 12 -15 18 -46 20 -34 3 -42 7 -42 23 0 15 7 19 35 19 24 0 35 5 35 15 0 10 -11 15 -35 15 -28 0 -35 4 -35 19 0 16 8 20 42 23 31 2 44 8 46 21 3 15 -5 17 -62 17 l-66 0 0 -95z"/>
<path d="M3671 2501 c-17 -49 -31 -92 -31 -96 0 -3 9 -5 19 -5 12 0 21 9 25 25 5 20 13 25 36 25 23 0 33 -6 40 -25 6 -15 17 -25 29 -25 18 0 17 6 -14 93 -25 70 -37 93 -52 95 -17 3 -25 -11 -52 -87z m63 7 c5 -23 3 -28 -13 -28 -14 0 -19 5 -16 15 14 42 16 48 19 44 2 -2 6 -16 10 -31z"/>
<path d="M3830 2495 l0 -95 60 0 c53 0 60 2 60 20 0 17 -7 20 -40 20 l-40 0 0 75 c0 68 -2 75 -20 75 -19 0 -20 -7 -20 -95z"/>
<path d="M4003 2580 c-22 -9 -28 -26 -23 -60 3 -20 3 -20 47 -35 42 -15 51 -38 16 -43 -13 -2 -23 1 -23 7 0 6 -11 11 -25 11 -29 0 -32 -12 -9 -34 41 -41 116 -25 122 26 3 28 -28 58 -61 58 -20 0 -33 23 -22 40 5 8 14 6 31 -4 47 -32 72 -14 34 24 -21 21 -51 24 -87 10z"/>
<path d="M1167 1843 c-12 -21 -38 -115 -34 -119 3 -3 8 4 12 15 9 30 58 29 73 -1 19 -40 13 -1 -9 57 -19 51 -32 66 -42 48z m27 -35 c9 -35 8 -38 -14 -38 -11 0 -20 3 -20 8 0 19 13 52 20 52 4 0 10 -10 14 -22z"/>
<path d="M1312 1800 c-2 -60 9 -80 43 -80 34 0 45 20 43 80 l-2 55 -3 -52 c-5 -59 -21 -80 -52 -64 -15 9 -21 24 -24 64 l-3 52 -2 -55z"/>
<path d="M1452 1783 l1 -68 6 55 6 55 32 -52 c18 -29 35 -53 38 -53 3 0 4 30 3 68 l-1 67 -6 -53 -6 -54 -30 51 c-16 28 -33 51 -37 51 -4 0 -7 -30 -6 -67z"/>
<path d="M1593 1785 c0 -38 2 -53 4 -32 2 20 2 52 0 70 -2 17 -4 1 -4 -38z"/>
<path d="M1647 1843 c19 -4 23 -12 26 -66 l3 -62 2 62 c2 55 4 62 25 66 12 2 0 4 -28 4 -27 0 -40 -2 -28 -4z"/>
<path d="M1810 1830 c-29 -29 -26 -76 6 -96 52 -35 104 14 82 76 -16 44 -55 53 -88 20z m64 -6 c28 -28 11 -94 -25 -94 -14 0 -49 39 -49 55 0 16 35 55 49 55 5 0 17 -7 25 -16z"/>
<path d="M1941 1783 c1 -47 3 -59 8 -38 5 23 13 31 36 36 l30 7 -33 1 c-29 1 -33 4 -30 24 2 16 12 24 38 28 l35 6 -42 2 -43 1 1 -67z"/>
<path d="M2091 1783 c1 -44 3 -59 8 -43 5 17 16 27 35 30 65 11 59 72 -8 78 l-36 3 1 -68z m68 39 c13 -24 -4 -42 -36 -42 -17 0 -23 6 -23 23 0 13 3 27 7 30 13 13 42 7 52 -11z"/>
<path d="M2210 1785 l0 -65 43 1 42 2 -35 6 c-46 8 -50 43 -5 52 l30 7 -33 1 c-29 1 -33 4 -30 24 2 16 12 24 38 28 l35 6 -42 2 -43 1 0 -65z"/>
<path d="M2320 1785 c0 -37 4 -65 10 -65 6 0 10 14 10 30 0 40 25 39 50 -2 20 -34 28 -23 10 12 -7 14 -7 25 2 39 17 28 -5 51 -48 51 l-34 0 0 -65z m67 44 c17 -17 4 -39 -23 -39 -19 0 -24 5 -24 25 0 27 26 35 47 14z"/>
<path d="M2452 1783 c0 -38 3 -54 5 -36 4 27 9 32 36 36 l32 4 -32 1 c-28 2 -33 6 -33 26 0 20 6 25 33 29 31 4 31 4 -5 5 l-38 2 2 -67z"/>
<path d="M2550 1785 l0 -65 43 2 42 1 -37 4 c-32 4 -38 8 -38 28 0 19 6 24 33 28 l32 4 -32 1 c-28 2 -33 6 -33 26 0 21 5 25 38 29 l37 4 -42 1 -43 2 0 -65z"/>
<path d="M2670 1830 c-11 -11 -20 -31 -20 -45 0 -51 61 -83 94 -49 23 23 20 30 -4 9 -17 -15 -24 -16 -45 -7 -35 16 -36 78 -2 91 12 5 29 5 39 0 26 -14 35 -10 14 6 -27 20 -52 19 -76 -5z"/>
<path d="M2788 1843 c20 -4 22 -10 22 -64 0 -33 4 -59 10 -59 6 0 10 26 10 59 0 54 2 60 23 64 12 2 -3 4 -33 4 -30 0 -45 -2 -32 -4z"/>
<path d="M2947 1843 c19 -4 23 -12 26 -66 l3 -62 2 62 c2 55 4 62 25 66 12 2 0 4 -28 4 -27 0 -40 -2 -28 -4z"/>
<path d="M3050 1785 l0 -65 43 1 42 2 -35 6 c-46 8 -50 43 -5 52 l30 7 -33 1 c-29 1 -33 4 -30 24 2 16 12 24 38 28 l35 6 -42 2 -43 1 0 -65z"/>
<path d="M3162 1788 l-2 -68 43 1 42 2 -35 6 c-35 6 -35 7 -41 66 l-6 60 -1 -67z"/>
<path d="M3270 1785 l0 -65 43 2 42 1 -37 4 c-32 4 -38 8 -38 28 0 19 6 24 33 28 l32 4 -32 1 c-28 2 -33 6 -33 26 0 21 5 25 38 29 l37 4 -42 1 -43 2 0 -65z"/>
<path d="M3382 1788 l-2 -68 43 2 42 1 -37 4 -37 4 -4 62 -3 62 -2 -67z"/>
<path d="M3480 1785 c0 -37 4 -65 10 -65 6 0 10 28 10 65 0 37 -4 65 -10 65 -6 0 -10 -28 -10 -65z"/>
<path d="M3542 1783 l1 -68 6 55 6 55 34 -52 c19 -29 38 -53 42 -53 5 0 9 29 9 65 0 75 -17 89 -22 18 l-3 -48 -28 48 c-16 26 -33 47 -38 47 -5 0 -8 -30 -7 -67z"/>
<path d="M3683 1785 c0 -38 2 -58 4 -42 5 33 13 34 43 2 13 -14 28 -25 34 -25 5 0 -4 15 -22 33 l-32 33 30 29 c16 16 28 31 25 34 -3 2 -21 -10 -39 -28 l-35 -34 -4 34 c-2 19 -4 3 -4 -36z"/>
<path d="M3803 1843 c-26 -10 -14 -44 22 -59 36 -15 46 -40 21 -50 -8 -3 -24 -1 -35 6 -13 6 -21 7 -21 1 0 -14 36 -24 59 -16 39 12 32 65 -9 65 -22 0 -44 25 -35 40 4 7 20 9 38 5 24 -5 28 -4 17 4 -16 11 -37 13 -57 4z"/>
</g>
</svg>